<svg width="32" height="32" viewBox="0 0 32 32" fill="none" xmlns="http://www.w3.org/2000/svg">
<g clip-path="url(#clip0_206_3)">
<path d="M21.4998 22C22.4998 22.5 24.4005 21.0866 24.3353 20.8157C26.368 20.8969 26.8762 19.5627 26.8762 18.8854C29.8472 17.8288 28.9998 17.5 28.6354 16.4471C30.8245 14.8215 30.1991 13.8056 29.6127 13.5008C30.6878 11.6721 30.9026 9.71918 31.0003 8.50004C31.098 7.28089 30.5 6.50004 29.6127 7.60827C29.038 8.32611 24.3353 11.86 21.9998 11.5M9.49985 11.5C7.16443 11.86 2.46157 8.32622 1.88698 7.60827C1 6.5 0.402271 7.28087 0.5 8.50002C0.597729 9.71916 0.811885 11.6721 1.88698 13.5008C1.30062 13.8056 0.675203 14.8215 2.86434 16.4471C2.49985 17.5 1.6525 17.8288 4.62346 18.8854C4.62346 19.5627 5.13166 20.8969 7.16442 20.8157C7.09923 21.0866 8.49985 22.5 9.49985 22" stroke="black" stroke-width="1.2" stroke-linejoin="round"/>
<path d="M20.7809 18.9228C21.1713 19.1953 22.0856 19.8337 22.0856 21.3799V25.5659H22.5213C22.7206 25.5659 22.8839 25.7292 22.8839 25.9285V26.6375C22.8839 26.8369 22.7205 27 22.5213 27H8.47769C8.27815 27 8.11523 26.8369 8.11523 26.6375V25.9285C8.11523 25.7291 8.27815 25.5659 8.47769 25.5659H8.91361V21.3222C8.91361 19.7907 9.3798 19.4322 10.2042 18.9299L13.7886 16.7457V15.8142C12.8854 15.2713 10.5274 13.8503 10.218 13.6343C9.82771 13.362 8.91365 12.7239 8.91365 11.1772V7.43414H8.47773C8.27819 7.43414 8.11528 7.27096 8.11528 7.07164V6.36267C8.11528 6.16336 8.27819 6 8.47773 6H22.5213C22.7207 6 22.884 6.16336 22.884 6.36267V7.07164C22.884 7.27096 22.7206 7.43414 22.5213 7.43414H22.0857V11.2354C22.0857 12.7666 21.6192 13.1252 20.7953 13.6274L17.2109 15.8115V16.7432C18.1135 17.2859 20.4715 18.7068 20.7809 18.9228ZM16.2184 14.8875L20.116 12.5126C20.4149 12.3302 20.5747 12.2297 20.6487 12.113C20.7371 11.9725 20.7803 11.6856 20.7803 11.2354V7.43419H10.2188V11.1772C10.2188 12.0432 10.6502 12.3442 10.9651 12.5641C11.2115 12.7357 13.38 14.0463 14.7773 14.8853C14.9738 15.0033 15.094 15.2156 15.094 15.4451V17.1126C15.094 17.34 14.9754 17.5513 14.7809 17.6697L10.8949 20.0374L10.8832 20.0448C10.5839 20.227 10.4243 20.3275 10.3505 20.4447C10.2621 20.5848 10.2188 20.872 10.2188 21.3222V25.5658H20.7802V21.3799C20.7802 20.5142 20.3488 20.2129 20.0338 19.9933C19.7876 19.8214 17.6194 18.5109 16.222 17.6719C16.0255 17.5539 15.9053 17.3415 15.9053 17.1125V15.445C15.9054 15.2172 16.0239 15.0061 16.2184 14.8875Z" fill="black"/>
<path d="M12 21.5803V24H19V21.5803C19 21.2215 18.8077 20.8901 18.4961 20.7121L15.9961 19.2835C15.6887 19.1078 15.3113 19.1078 15.0039 19.2835L12.5039 20.7121C12.1923 20.8901 12 21.2215 12 21.5803Z" stroke="black"/>
<circle cx="15.5" cy="10.5" r="2" stroke="black"/>
</g>
<defs>
<clipPath id="clip0_206_3">
<rect width="32" height="32" fill="white"/>
</clipPath>
</defs>
</svg>
