<svg width="32" height="32" viewBox="0 0 32 32" fill="none" xmlns="http://www.w3.org/2000/svg">
<path d="M21.6897 11.311C25.5 11.311 29.0609 7.50198 29.6258 6.63956C30.498 5.30813 31.0858 6.24625 30.9897 7.71093C30.8937 9.17561 30.6826 11.5218 29.6258 13.7188C30.2022 14.085 30.8169 15.3056 28.6652 17.2585C29.0234 18.5235 29.2651 19.6014 26.3448 20.8708C26.3448 21.6845 25.2394 23.0928 23.2414 22.9952M11 11.311C7.5 11.5 2.93834 7.5021 2.37356 6.63956C1.50173 5.30808 0.914207 6.24623 1.01027 7.71091C1.10633 9.17559 1.31683 11.5218 2.37356 13.7188C1.79722 14.085 1.18248 15.3056 3.33423 17.2585C2.97597 18.5235 2.73494 19.6014 5.65517 20.8708C5.65517 21.6845 7.50194 23.0976 9.5 23" stroke="black" stroke-width="2" stroke-linejoin="round"/>
<path d="M22.5792 19.4612C23.0285 19.8505 24.081 20.7624 24.081 22.9713V28.9512H24.5824C24.8119 28.9512 24.9999 29.1845 24.9999 29.4693V30.4822C24.9999 30.7669 24.8118 31 24.5824 31H8.41721C8.18753 31 8 30.7669 8 30.4822V29.4693C8 29.1845 8.18753 28.9512 8.41721 28.9512H8.91899V22.8888C8.91899 20.701 9.45562 20.1888 10.4046 19.4713L14.5305 16.3511V15.0204C13.4908 14.2448 10.7766 12.2147 10.4205 11.9062C9.97119 11.5171 8.91904 10.6055 8.91904 8.396V3.04877H8.41726C8.18758 3.04877 8.00005 2.81566 8.00005 2.53092V1.51811C8.00005 1.23337 8.18758 0.999999 8.41726 0.999999H24.5825C24.812 0.999999 25 1.23337 25 1.51811V2.53092C25 2.81566 24.8119 3.04877 24.5825 3.04877H24.0811V8.47914C24.0811 10.6665 23.5441 11.1789 22.5957 11.8963L18.4698 15.0165V16.3474C19.5088 17.1227 22.2231 19.1525 22.5792 19.4612ZM17.3273 13.6964L21.8138 10.3037C22.1579 10.0431 22.3418 9.89952 22.427 9.7328C22.5288 9.53216 22.5784 9.1223 22.5784 8.4792V3.04884H10.4214V8.39606C10.4214 9.63311 10.918 10.0632 11.2804 10.3773C11.564 10.6224 14.0602 12.4947 15.6685 13.6932C15.8948 13.8618 16.0331 14.1651 16.0331 14.493V16.8751C16.0331 17.2 15.8966 17.5018 15.6727 17.6709L11.1996 21.0535L11.1861 21.0639C10.8416 21.3243 10.6579 21.4678 10.573 21.6353C10.4712 21.8354 10.4214 22.2457 10.4214 22.8888V28.9512H22.5784V22.9712C22.5784 21.7346 22.0818 21.3042 21.7192 20.9904C21.4358 20.7449 18.94 18.8727 17.3315 17.6741C17.1053 17.5056 16.967 17.2022 16.967 16.875V14.4929C16.9671 14.1675 17.1035 13.8658 17.3273 13.6964Z" fill="black"/>
</svg>
