<svg width="32" height="32" viewBox="0 0 32 32" fill="none" xmlns="http://www.w3.org/2000/svg">
<path d="M22.2759 11C25.5782 11 28.3195 8.32488 28.8091 7.56414C29.5649 6.38968 30.0744 7.21719 29.9911 8.50919C29.9079 9.80119 29.7249 11.8708 28.8091 13.8088C29.3086 14.1318 29.8413 15.2085 27.9765 16.9311C28.287 18.047 28.4964 18.9978 25.9655 20.1175C25.9655 20.8353 24.0075 22.0776 22.2759 21.9915" stroke="black" stroke-width="1.5" stroke-linejoin="round"/>
<path d="M10.7241 11C7.42184 11 4.68052 8.32488 4.19093 7.56414C3.43509 6.38968 2.92564 7.21719 3.00889 8.50919C3.09215 9.80119 3.2751 11.8708 4.19093 13.8088C3.69144 14.1318 3.15866 15.2085 5.02351 16.9311C4.71302 18.047 4.50361 18.9978 7.03448 20.1175C7.03448 20.8353 8.99249 22.0776 10.7241 21.9915" stroke="black" stroke-width="1.5" stroke-linejoin="round"/>
<path d="M21.864 18.9997C22.2604 19.3371 23.1891 20.1274 23.1891 22.0418V27.2244H23.6316C23.834 27.2244 23.9999 27.4266 23.9999 27.6734V28.5512C23.9999 28.798 23.8339 29 23.6316 29H9.36813C9.16547 29 9 28.798 9 28.5512V27.6734C9 27.4265 9.16547 27.2244 9.36813 27.2244H9.81087V21.9703C9.81087 20.0742 10.2844 19.6303 11.1217 19.0085L14.7622 16.3043V15.151C13.8449 14.4788 11.4499 12.7194 11.1357 12.452C10.7393 12.1149 9.81092 11.3248 9.81092 9.40986V4.7756H9.36817C9.16551 4.7756 9.00005 4.57357 9.00005 4.3268V3.44902C9.00005 3.20225 9.16551 3 9.36817 3H23.6316C23.8341 3 24 3.20225 24 3.44902V4.3268C24 4.57357 23.834 4.7756 23.6316 4.7756H23.1892V9.48192C23.1892 11.3777 22.7154 11.8217 21.8786 12.4435L18.2381 15.1476V16.3011C19.1548 16.973 21.5498 18.7322 21.864 18.9997ZM17.23 14.0036L21.1887 11.0632C21.4923 10.8374 21.6545 10.7129 21.7297 10.5684C21.8195 10.3945 21.8633 10.0393 21.8633 9.48197V4.77566H11.1365V9.40992C11.1365 10.482 11.5747 10.8548 11.8944 11.127C12.1447 11.3394 14.3472 12.9621 15.7663 14.0008C15.966 14.1469 16.088 14.4098 16.088 14.6939V16.7584C16.088 17.04 15.9676 17.3016 15.77 17.4482L11.8232 20.3797L11.8113 20.3888C11.5073 20.6144 11.3452 20.7388 11.2703 20.8839C11.1805 21.0573 11.1365 21.4129 11.1365 21.9703V27.2243H21.8633V22.0417C21.8633 20.97 21.4251 20.5969 21.1052 20.3251C20.8552 20.1122 18.6529 18.4897 17.2337 17.4509C17.0341 17.3048 16.9121 17.0419 16.9121 16.7583V14.6939C16.9121 14.4118 17.0325 14.1504 17.23 14.0036Z" fill="black"/>
</svg>
