<svg width="32" height="32" viewBox="0 0 32 32" fill="none" xmlns="http://www.w3.org/2000/svg">
<path d="M20.7809 18.9228C21.1713 19.1953 22.0856 19.8337 22.0856 21.3799V24.5659H22.5213C22.7206 24.5659 22.8839 24.7292 22.8839 24.9285V26.6375C22.8839 26.8369 22.7205 27 22.5213 27H8.47769C8.27815 27 8.11523 26.8369 8.11523 26.6375V24.9285C8.11523 24.7291 8.27815 24.5659 8.47769 24.5659H8.91361V21.3222C8.91361 19.7907 9.3798 19.4322 10.2042 18.9299L13.7886 16.7457V15.8142C12.8854 15.2713 10.5274 13.8503 10.218 13.6343C9.82771 13.362 8.91365 12.7239 8.91365 11.1772V8.43414H8.47773C8.27819 8.43414 8.11528 8.27096 8.11528 8.07164V6.36267C8.11528 6.16336 8.27819 6 8.47773 6H22.5213C22.7207 6 22.884 6.16336 22.884 6.36267V8.07164C22.884 8.27096 22.7206 8.43414 22.5213 8.43414H22.0857V11.2354C22.0857 12.7666 21.6192 13.1252 20.7953 13.6274L17.2109 15.8115V16.7432C18.1135 17.2859 20.4715 18.7068 20.7809 18.9228ZM16.2184 14.8875L20.116 12.5126C20.4149 12.3302 20.5747 12.2297 20.6487 12.113C20.7371 11.9725 20.7803 11.6856 20.7803 11.2354V8.43419H10.2188V11.1772C10.2188 12.0432 10.6502 12.3442 10.9651 12.5641C11.2115 12.7357 13.38 14.0463 14.7773 14.8853C14.9738 15.0033 15.094 15.2156 15.094 15.4451V17.1126C15.094 17.34 14.9754 17.5513 14.7809 17.6697L10.8949 20.0374L10.8832 20.0448C10.5839 20.227 10.4243 20.3275 10.3505 20.4447C10.2621 20.5848 10.2188 20.872 10.2188 21.3222V24.5658H20.7802V21.3799C20.7802 20.5142 20.3488 20.2129 20.0338 19.9933C19.7876 19.8214 17.6194 18.5109 16.222 17.6719C16.0255 17.5539 15.9053 17.3415 15.9053 17.1125V15.445C15.9054 15.2172 16.024 15.0061 16.2184 14.8875Z" fill="black"/>
<path d="M19.6957 20.1533C19.6957 20.1533 19.9306 20.3584 19.5714 20.2998C18.72 20.1615 17.2151 19.628 15.4839 19.628C13.7526 19.628 12.9536 20.1163 11.8213 20.1298C11.5741 20.1327 11.5791 19.9687 11.8629 19.8017C12.1464 19.6348 14.6938 18.2177 15.0444 18.0225C15.395 17.8276 15.5956 17.8427 15.9672 18.0225C16.5076 18.2845 19.6957 20.1533 19.6957 20.1533Z" fill="black"/>
<path d="M11.8493 9.3516C11.5498 9.07598 11.4064 8.87604 12.0951 8.87604C12.6569 8.87604 18.2802 8.87604 18.9953 8.87604C19.7099 8.87604 19.4328 9.11811 19.0979 9.43728C18.4508 10.0536 17.0818 10.4834 15.4394 10.4834C13.7191 10.4834 12.5165 9.96602 11.8493 9.3516Z" fill="black"/>
<path d="M9.5 22C8.5 22.5 7.09938 21.0866 7.16458 20.8156C5.13181 20.8969 4.62362 19.5626 4.62362 18.8853C1.65265 17.8287 2.5 17.5 2.86449 16.447C0.675356 14.8215 1.30078 13.8055 1.88713 13.5008C0.812038 11.672 1.1053 9.23376 1.00757 8.01461C0.909837 6.79547 1.7894 6.69387 1.88713 7.60823C1.98486 8.52259 7.16458 11.8599 9.5 11.5" stroke="black" stroke-width="1.5" stroke-linejoin="round"/>
<path d="M21.5 22C22.5 22.5 24.4006 21.0866 24.3354 20.8156C26.3682 20.8969 26.8764 19.5626 26.8764 18.8853C29.8474 17.8287 29 17.5 28.6355 16.447C30.8246 14.8215 30.1992 13.8055 29.6129 13.5008C30.688 11.672 30.3947 9.23376 30.4924 8.01461C30.5902 6.79547 29.7106 6.69387 29.6129 7.60823C29.5151 8.52259 24.3354 11.8599 22 11.5" stroke="black" stroke-width="1.5" stroke-linejoin="round"/>
</svg>
